HIERARCHY
ROOT Hips
{
	OFFSET -0.001795 -0.223333 0.028219
	CHANNELS 6 Xposition Yposition Zposition Zrotation Yrotation Xrotation 
	JOINT LeftUpLeg
	{
		OFFSET 0.069520 -0.091406 -0.006815
		CHANNELS 3 Zrotation Yrotation Xrotation
		JOINT LeftLeg
		{
			OFFSET 0.034277 -0.375199 -0.004496
			CHANNELS 3 Zrotation Yrotation Xrotation
			JOINT LeftFoot
			{
				OFFSET -0.013596 -0.397961 -0.043693
				CHANNELS 3 Zrotation Yrotation Xrotation
				JOINT LeftToe
				{
					OFFSET 0.026358 -0.055791 0.119288
					CHANNELS 3 Zrotation Yrotation Xrotation
					End Site
					{
						OFFSET 0.000000 0.000000 0.000000
					}
				}
			}
		}
	}
	JOINT RightUpLeg
	{
		OFFSET -0.067670 -0.090522 -0.004320
		CHANNELS 3 Zrotation Yrotation Xrotation
		JOINT RightLeg
		{
			OFFSET -0.038290 -0.382569 -0.008850
			CHANNELS 3 Zrotation Yrotation Xrotation
			JOINT RightFoot
			{
				OFFSET 0.015774 -0.398415 -0.042312
				CHANNELS 3 Zrotation Yrotation Xrotation
				JOINT RightToe
				{
					OFFSET -0.025372 -0.048144 0.123348
					CHANNELS 3 Zrotation Yrotation Xrotation
					End Site
					{
						OFFSET 0.000000 0.000000 0.000000
					}
				}
			}
		}
	}
	JOINT Spine
	{
		OFFSET -0.002533 0.108963 -0.026696
		CHANNELS 3 Zrotation Yrotation Xrotation
		JOINT Spine1
		{
			OFFSET 0.005487 0.135180 0.001092
			CHANNELS 3 Zrotation Yrotation Xrotation
			JOINT Spine2
			{
				OFFSET 0.001457 0.052922 0.025425
				CHANNELS 3 Zrotation Yrotation Xrotation
				JOINT Neck
				{
					OFFSET -0.002778 0.213870 -0.042857
					CHANNELS 3 Zrotation Yrotation Xrotation
					JOINT Head
					{
						OFFSET 0.005152 0.064970 0.051349
						CHANNELS 3 Zrotation Yrotation Xrotation
						End Site
						{
							OFFSET 0.000000 0.000000 0.000000
						}
					}
				}
				JOINT LeftShoulder
				{
					OFFSET 0.078845 0.121749 -0.034090
					CHANNELS 3 Zrotation Yrotation Xrotation
					JOINT LeftArm
					{
						OFFSET 0.090977 0.030469 -0.008868
						CHANNELS 3 Zrotation Yrotation Xrotation
						JOINT LeftForeArm
						{
							OFFSET 0.259612 -0.012772 -0.027456
							CHANNELS 3 Zrotation Yrotation Xrotation
							JOINT LeftHand
							{
								OFFSET 0.249234 0.008986 -0.001171
								CHANNELS 3 Zrotation Yrotation Xrotation
								End Site
								{
									OFFSET 0.000000 0.000000 0.000000
								}
							}
						}
					}
				}
				JOINT RightShoulder
				{
					OFFSET -0.081759 0.118833 -0.038615
					CHANNELS 3 Zrotation Yrotation Xrotation
					JOINT RightArm
					{
						OFFSET -0.096012 0.032551 -0.009143
						CHANNELS 3 Zrotation Yrotation Xrotation
						JOINT RightForeArm
						{
							OFFSET -0.253742 -0.013329 -0.021401
							CHANNELS 3 Zrotation Yrotation Xrotation
							JOINT RightHand
							{
								OFFSET -0.255298 0.007772 -0.005559
								CHANNELS 3 Zrotation Yrotation Xrotation
								End Site
								{
									OFFSET 0.000000 0.000000 0.000000
								}
							}
						}
					}
				}
			}
		}
	}
}
MOTION
Frames: 7
Frame Time: 0.05000000
16.807220 0.871369 -10.061020 -177.750976 -10.768704 -123.439274 177.625724 -3.562111 -77.895563 15.918082 -5.423424 -32.361153 -34.332978 2.728984 103.641004 0.000000 0.000000 0.000000 -33.846966 38.067961 -60.139463 -0.052223 7.875550 -7.193444 -90.260726 25.378939 50.950589 0.000000 0.000000 0.000000 -13.516052 19.528525 -22.120652 16.774641 11.780459 3.482651 -17.485844 -31.123767 34.867030 13.241434 25.145718 -6.704506 0.000000 0.000000 0.000000 50.559981 -5.069701 86.589232 68.066291 -17.951148 26.575529 -4.575968 24.517471 0.625265 0.000000 0.000000 0.000000 -36.313241 32.055742 -1.055115 -0.117748 46.979881 -51.616848 5.187655 18.254099 -6.385256 0.000000 0.000000 0.000000 
16.612467 0.869690 -11.140184 -177.854742 -7.781988 -121.603421 170.840450 -1.387841 -77.933829 14.059731 -6.927115 -37.367756 -38.662847 2.799945 111.227963 0.000000 0.000000 0.000000 -27.738835 36.794680 -54.859575 -1.163281 7.548787 -6.482333 -162.770089 75.446866 -1.899320 0.000000 0.000000 0.000000 -14.260270 19.860950 -21.756328 15.900915 12.307269 3.135284 -17.223759 -31.519045 34.968675 13.802373 27.701734 -6.782729 0.000000 0.000000 0.000000 53.939576 -3.267268 91.454638 67.167452 -14.107326 28.938385 -6.555457 25.650040 1.075083 0.000000 0.000000 0.000000 -38.571644 32.912028 -3.385576 -1.503257 45.504728 -53.610138 5.060837 17.011754 -6.188169 0.000000 0.000000 0.000000 
16.406403 0.865142 -12.361117 -178.028949 -3.988792 -119.751975 160.874638 1.516244 -77.799925 11.065386 -10.325038 -44.487244 -43.860689 2.795105 118.948989 0.000000 0.000000 0.000000 -24.527886 35.095286 -50.331201 -0.349305 8.317554 -6.019440 76.890856 3.554550 -87.424348 0.000000 0.000000 0.000000 -15.710997 19.331444 -19.618153 15.266409 13.574789 3.546543 -17.226426 -32.038519 33.532736 13.297635 30.414342 -6.686916 0.000000 0.000000 0.000000 56.717790 -2.216401 99.477884 65.399728 -9.226342 29.299140 -9.015536 27.551501 1.529260 0.000000 0.000000 0.000000 -40.762141 34.676646 -7.512580 -1.114219 43.657937 -55.381723 5.634131 16.261883 -6.205266 0.000000 0.000000 0.000000 
16.228716 0.856866 -13.658975 -177.999700 -0.386321 -117.357861 -106.699716 -19.602256 -84.264088 51.540299 17.834684 -7.440711 -73.094531 19.771979 69.187898 0.000000 0.000000 0.000000 37.283087 -27.719669 -51.683461 -8.378452 -2.648524 3.326098 96.983736 7.412376 9.136524 0.000000 0.000000 0.000000 -4.844816 -19.396549 -17.454920 -22.491775 -18.111166 0.013739 24.084834 39.283361 37.920022 -33.199319 -50.399485 -5.152041 0.000000 0.000000 0.000000 47.319463 -36.215565 -37.504891 -16.016802 -20.853818 -28.426049 -8.998430 -14.603993 -9.007965 0.000000 0.000000 0.000000 -68.305996 6.506520 125.367624 -66.321116 -24.677002 50.347666 20.947031 -11.811258 0.147375 0.000000 0.000000 0.000000 
16.078281 0.845202 -15.005993 -177.027160 2.161370 -114.633900 -109.443326 -20.566803 -84.702666 57.431826 24.654522 -8.279513 -79.559422 23.338049 76.633852 0.000000 0.000000 0.000000 31.573590 -23.211924 -44.830241 -9.235657 -1.402768 0.985628 95.834040 6.323416 4.273052 0.000000 0.000000 0.000000 -7.125659 -15.406037 -13.811286 -23.639084 -20.509444 2.611346 23.513180 37.833925 33.876148 -36.485412 -49.433260 -1.980562 0.000000 0.000000 0.000000 44.207230 -37.026789 -31.085408 -10.417238 -22.206272 -21.645228 -2.063742 -14.249743 -8.287302 0.000000 0.000000 0.000000 -66.431911 6.125335 117.395631 -66.303364 -19.006190 46.411108 19.906963 -11.465704 -0.313743 0.000000 0.000000 0.000000 
15.947425 0.831510 -16.311016 -175.507846 4.083199 -112.184343 -109.476123 -22.503857 -85.112192 63.927720 35.668276 -9.347945 -74.905843 33.358976 87.647589 0.000000 0.000000 0.000000 29.367642 -20.941820 -42.532476 -9.381258 -2.195253 3.246694 112.008266 1.992998 7.105519 0.000000 0.000000 0.000000 -8.506921 -8.915618 -7.181333 -24.686174 -23.828856 4.292223 22.947783 34.908972 28.562912 -39.795034 -48.263595 1.490949 0.000000 0.000000 0.000000 41.399532 -36.830579 -26.273639 -5.225503 -23.143591 -17.517052 2.034232 -13.224527 -7.743246 0.000000 0.000000 0.000000 -65.371568 9.896970 117.375958 -60.517073 -20.348409 40.061735 20.087512 -9.057075 -0.749231 0.000000 0.000000 0.000000 
15.848385 0.818197 -17.582083 -173.891659 5.862720 -108.570138 -102.244927 -26.755006 -88.594012 77.717576 46.876992 -0.424420 -74.114397 30.584635 93.883992 0.000000 0.000000 0.000000 22.167287 -17.602621 -37.184133 -6.968123 -2.867746 3.599033 105.380939 -2.000916 1.942053 0.000000 0.000000 0.000000 -9.930948 -3.381595 2.005067 -22.088406 -24.834103 2.565206 20.913051 30.549497 22.292452 -48.071938 -48.115882 9.408134 0.000000 0.000000 0.000000 38.320391 -39.456897 -22.367298 1.619471 -21.434021 -12.901151 4.818123 -12.318220 -7.052224 0.000000 0.000000 0.000000 -61.153815 10.500712 110.014174 -58.636895 -14.280189 33.866367 20.214329 -9.769069 -1.428701 0.000000 0.000000 0.000000 
